HIERARCHY
ROOT Hips
{
	OFFSET 0.000000 0.000000 0.000000
	CHANNELS 6 Xposition Yposition Zposition Zrotation Yrotation Xrotation 
	JOINT LowerBack
	{
		OFFSET 0.000000 0.000000 0.000000
		CHANNELS 3 Zrotation Yrotation Xrotation
		JOINT Spine
		{
			OFFSET 0.028270 2.035590 -0.193380
			CHANNELS 3 Zrotation Yrotation Xrotation
			JOINT Spine1
			{
				OFFSET 0.056720 2.048850 -0.042750
				CHANNELS 3 Zrotation Yrotation Xrotation
				JOINT Neck
				{
					OFFSET 0.000000 0.000000 0.000000
					CHANNELS 3 Zrotation Yrotation Xrotation
					JOINT Neck1
					{
						OFFSET -0.054170 1.746240 0.172020
						CHANNELS 3 Zrotation Yrotation Xrotation
						JOINT Head
						{
							OFFSET 0.104070 1.761360 -0.123970
							CHANNELS 3 Zrotation Yrotation Xrotation
							End Site
							{
								OFFSET 0.000000 0.000000 0.000000
							}
						}
					}
				}
				JOINT LeftShoulder
				{
					OFFSET 0.000000 0.000000 0.000000
					CHANNELS 3 Zrotation Yrotation Xrotation
					JOINT LeftArm
					{
						OFFSET 3.362410 1.200890 -0.311210
						CHANNELS 3 Zrotation Yrotation Xrotation
						JOINT LeftForeArm
						{
							OFFSET 4.983000 -0.000000 -0.000000
							CHANNELS 3 Zrotation Yrotation Xrotation
							JOINT LeftHand
							{
								OFFSET 3.483560 -0.000000 -0.000000
								CHANNELS 3 Zrotation Yrotation Xrotation
								JOINT LeftFingerBase
								{
									OFFSET 0.000000 0.000000 0.000000
									CHANNELS 3 Zrotation Yrotation Xrotation
									JOINT LeftHandIndex1
									{
										OFFSET 0.715260 -0.000000 -0.000000
										CHANNELS 3 Zrotation Yrotation Xrotation
										End Site
										{
											OFFSET 0.000000 0.000000 0.000000
										}
									}
								}
								JOINT LThumb
								{
									OFFSET 0.000000 0.000000 0.000000
									CHANNELS 3 Zrotation Yrotation Xrotation
									End Site
									{
										OFFSET 0.000000 0.000000 0.000000
									}
								}
							}
						}
					}
				}
				JOINT RightShoulder
				{
					OFFSET 0.000000 0.000000 0.000000
					CHANNELS 3 Zrotation Yrotation Xrotation
					JOINT RightArm
					{
						OFFSET -3.136600 1.374050 -0.404650
						CHANNELS 3 Zrotation Yrotation Xrotation
						JOINT RightForeArm
						{
							OFFSET -5.241900 -0.000000 -0.000000
							CHANNELS 3 Zrotation Yrotation Xrotation
							JOINT RightHand
							{
								OFFSET -3.444170 -0.000000 -0.000000
								CHANNELS 3 Zrotation Yrotation Xrotation
								JOINT RightFingerBase
								{
									OFFSET 0.000000 0.000000 0.000000
									CHANNELS 3 Zrotation Yrotation Xrotation
									JOINT RightHandIndex1
									{
										OFFSET -0.622530 -0.000000 -0.000000
										CHANNELS 3 Zrotation Yrotation Xrotation
										End Site
										{
											OFFSET 0.000000 0.000000 0.000000
										}
									}
								}
								JOINT RThumb
								{
									OFFSET 0.000000 0.000000 0.000000
									CHANNELS 3 Zrotation Yrotation Xrotation
									End Site
									{
										OFFSET 0.000000 0.000000 0.000000
									}
								}
							}
						}
					}
				}
			}
		}
	}
}
}
MOTION
Frames: 17
Frame Time: 0.008333
4.012965 17.085683 -2.576206 -170.946110 51.672897 -158.369491 -0.000033 1.298612 -0.977153 -0.955764 1.234415 -3.088332 -6.280164 1.295808 0.480857 6.950820 -9.044168 -8.016720 -3.081202 -0.226562 -0.162212 0.000000 0.000000 0.000000 -1.027132 17.527742 0.552717 -65.227234 11.849600 16.428718 -0.133752 -86.989362 -0.011549 2.223331 7.509378 0.151233 -0.085285 0.079258 0.000000 0.000000 0.000000 0.000000 0.000000 0.000000 0.000000 9.908128 -1.460861 -0.140913 52.871317 24.571920 21.106585 -0.014074 89.326351 0.001158 -0.356789 3.168866 -0.011017 0.029362 -0.390441 -0.000000 0.000000 0.000000 0.000000 0.000000 0.000000 0.000000 
4.128265 17.023567 -2.678969 -170.611323 51.009719 -158.221491 -0.100142 1.252415 -1.065898 -0.978438 1.192072 -3.106824 -6.312261 1.253720 0.472543 7.390219 -9.103501 -7.932828 -3.051202 -0.225673 -0.132162 0.000000 0.000000 0.000000 -0.868391 17.300651 0.526594 -65.491573 12.032070 16.039458 -0.133963 -86.999188 -0.011232 2.226320 7.418658 0.149320 -0.082869 0.081847 0.000000 0.000000 0.000000 0.000000 0.000000 0.000000 0.000000 10.163094 -1.559414 -0.105016 52.534539 24.507299 20.981266 -0.033976 89.736216 0.001204 -0.368071 3.225358 -0.011601 0.030784 -0.393750 -0.000000 0.000000 0.000000 0.000000 0.000000 0.000000 0.000000 
4.244418 16.959026 -2.780226 -170.402770 50.367781 -158.131501 -0.283347 1.184036 -1.185487 -1.017970 1.132331 -3.131586 -6.349602 1.193793 0.462540 7.850992 -9.136814 -7.850766 -3.024117 -0.224932 -0.103469 0.000000 0.000000 0.000000 -0.746936 17.083490 0.509080 -65.669749 12.141450 15.682257 -0.134403 -87.006839 -0.011048 2.244912 7.339671 0.148815 -0.081258 0.084365 0.000000 0.000000 0.000000 0.000000 0.000000 0.000000 0.000000 10.449591 -1.637637 -0.067784 52.244082 24.430761 20.887279 179.947805 89.889400 -179.998708 -0.377534 3.314658 -0.012279 0.032326 -0.397651 -0.000000 0.000000 0.000000 0.000000 0.000000 0.000000 0.000000 
4.360892 16.892799 -2.879824 -170.328646 49.742051 -158.116842 -0.546677 1.094646 -1.318469 -1.073038 1.056899 -3.158847 -6.389746 1.117749 0.451852 8.318258 -9.146887 -7.771388 -2.997633 -0.224111 -0.076645 0.000000 0.000000 0.000000 -0.671078 16.886059 0.501268 -65.753172 12.139865 15.386167 -0.136692 -86.980204 -0.011088 2.299735 7.276639 0.150819 -0.080930 0.086831 0.000000 0.000000 0.000000 0.000000 0.000000 0.000000 0.000000 10.742359 -1.699691 -0.034073 52.024671 24.332094 20.819947 179.931821 89.558697 -179.998541 -0.376899 3.433109 -0.012657 0.033668 -0.402000 -0.000000 0.000000 0.000000 0.000000 0.000000 0.000000 0.000000 
4.476855 16.825819 -2.977951 -170.375404 49.128740 -158.178134 -0.870115 0.989162 -1.447368 -1.139008 0.969998 -3.185116 -6.430122 1.029845 0.440083 8.772473 -9.136994 -7.693782 -2.969549 -0.223029 -0.051606 0.000000 0.000000 0.000000 -0.655842 16.711824 0.503185 -65.737798 11.998181 15.175013 -0.142346 -86.890061 -0.011421 2.406844 7.233944 0.156736 -0.082236 0.089225 0.000000 0.000000 0.000000 0.000000 0.000000 0.000000 0.000000 11.011096 -1.749094 -0.008431 51.897808 24.197450 20.772932 179.918585 89.280088 -179.998270 -0.359163 3.572679 -0.012636 0.034517 -0.406530 -0.000000 0.000000 0.000000 0.000000 0.000000 0.000000 0.000000 
4.591425 16.759109 -3.074630 -170.544069 48.525845 -158.338000 -1.244660 0.872794 -1.545737 -1.213584 0.877039 -3.205049 -6.468383 0.935640 0.427968 9.196685 -9.113498 -7.617613 -2.937989 -0.221510 -0.028513 0.000000 0.000000 0.000000 -0.704161 16.565535 0.515021 -65.628889 11.679548 15.073532 -0.153341 -86.698249 -0.012103 2.577798 7.213319 0.167065 -0.085422 0.091576 0.000000 0.000000 0.000000 0.000000 0.000000 0.000000 0.000000 11.231675 -1.792899 0.005109 51.881139 24.016546 20.737611 179.908931 89.063194 -179.997876 -0.317827 3.721708 -0.011621 0.034569 -0.410901 -0.000000 0.000000 0.000000 0.000000 0.000000 0.000000 0.000000 
4.703694 16.694088 -3.170082 -170.826135 47.931442 -158.603828 -1.655198 0.752436 -1.595397 -1.293679 0.784257 -3.215117 -6.503439 0.841540 0.415657 9.576209 -9.082532 -7.541493 -2.902392 -0.219518 -0.007082 0.000000 0.000000 0.000000 -0.821937 16.445407 0.535982 -65.434116 11.158843 15.097198 -0.171319 -86.375607 -0.013163 2.817912 7.215356 0.182407 -0.090573 0.093874 0.000000 0.000000 0.000000 0.000000 0.000000 0.000000 0.000000 11.388375 -1.837198 0.004411 51.982721 23.778575 20.704764 179.903540 88.916202 -179.997362 -0.248984 3.865803 -0.009513 0.033635 -0.414705 -0.000000 0.000000 0.000000 0.000000 0.000000 0.000000 0.000000 
4.812631 16.632298 -3.264984 -171.193463 47.339904 -158.957296 -2.074847 0.635957 -1.591066 -1.374322 0.697538 -3.214451 -6.535692 0.753596 0.402797 9.899108 -9.048128 -7.463086 -2.863648 -0.217170 0.013463 0.000000 0.000000 0.000000 -1.019824 16.343872 0.564391 -65.161572 10.426040 15.250877 -0.197403 -85.906260 -0.014604 3.126156 7.238725 0.202659 -0.097618 0.096086 0.000000 0.000000 0.000000 0.000000 0.000000 0.000000 0.000000 11.474366 -1.885232 -0.010687 52.196291 23.471865 20.664119 179.902650 88.843685 -179.996729 -0.150328 3.989418 -0.005915 0.031619 -0.417488 -0.000000 0.000000 0.000000 0.000000 0.000000 0.000000 0.000000 
4.917580 16.575287 -3.359601 -171.637176 46.746283 -159.390218 -2.490016 0.528607 -1.532988 -1.453198 0.620921 -3.202969 -6.565687 0.675993 0.390712 10.160286 -9.015011 -7.381008 -2.823425 -0.214635 0.033683 0.000000 0.000000 0.000000 -1.297175 16.254141 0.598572 -64.826616 9.474911 15.536393 -0.232550 -85.278946 -0.016403 3.496131 7.278555 0.227520 -0.106357 0.098239 0.000000 0.000000 0.000000 0.000000 0.000000 0.000000 0.000000 11.495151 -1.941777 -0.038945 52.507321 23.092013 20.606954 179.906466 88.849321 -179.995993 -0.021857 4.077862 -0.000928 0.028522 -0.418840 -0.000000 0.000000 0.000000 0.000000 0.000000 0.000000 0.000000 
5.017742 16.524496 -3.454658 -172.133230 46.142369 -159.875063 -2.882310 0.434854 -1.430561 -1.527195 0.557145 -3.182488 -6.594756 0.611547 0.380175 10.358347 -8.986018 -7.293280 -2.784059 -0.212157 0.054435 0.000000 0.000000 0.000000 -1.652716 16.164703 0.636323 -64.447875 8.316700 15.945873 -0.277005 -84.497896 -0.018506 3.916774 7.327401 0.256288 -0.116450 0.100388 0.000000 0.000000 0.000000 0.000000 0.000000 0.000000 0.000000 11.462343 -2.009452 -0.077522 52.891155 22.635952 20.525444 179.914776 88.933391 -179.995168 0.135416 4.118299 0.005449 0.024428 -0.418401 -0.000000 0.000000 0.000000 0.000000 0.000000 0.000000 0.000000 
5.112547 16.480992 -3.550781 -172.652314 45.521628 -160.375838 -3.227174 0.357962 -1.299643 -1.591706 0.507317 -3.155975 -6.623180 0.561351 0.372173 10.493400 -8.960617 -7.198045 -2.747721 -0.209972 0.076672 0.000000 0.000000 0.000000 -2.083066 16.066248 0.675460 -64.048297 6.973817 16.467339 -0.330372 -83.579267 -0.020844 4.374174 7.375571 0.287758 -0.127502 0.102639 0.000000 0.000000 0.000000 0.000000 0.000000 0.000000 0.000000 11.387399 -2.086982 -0.123391 53.317605 22.103668 20.413945 179.927015 89.093280 -179.994272 0.318831 4.101693 0.012817 0.019477 -0.415904 -0.000000 0.000000 0.000000 0.000000 0.000000 0.000000 0.000000 
5.201531 16.445463 -3.648420 -173.177438 44.880213 -160.871225 -3.516748 0.298713 -1.151330 -1.645279 0.471459 -3.125385 -6.650765 0.525391 0.367920 10.571842 -8.943923 -7.094535 -2.716364 -0.208273 0.100904 0.000000 0.000000 0.000000 -2.571396 15.944432 0.713258 -63.658145 5.482399 17.081063 -0.391477 -82.549575 -0.023316 4.851553 7.410625 0.320433 -0.138984 0.105157 0.000000 0.000000 0.000000 0.000000 0.000000 0.000000 0.000000 11.289043 -2.179781 -0.171278 53.753006 21.510596 20.274869 179.942710 89.327899 -179.993326 0.523670 4.023068 0.020677 0.013947 -0.411229 -0.000000 0.000000 0.000000 0.000000 0.000000 0.000000 0.000000 
5.284204 16.418207 -3.748332 -173.664387 44.215970 -161.314425 -3.719625 0.258630 -1.004823 -1.681591 0.448662 -3.094512 -6.676329 0.502605 0.367088 10.596157 -8.930575 -6.980736 -2.691176 -0.207219 0.128176 0.000000 0.000000 0.000000 -3.110426 15.791589 0.747572 -63.304042 3.887497 17.767640 -0.458248 -81.448534 -0.025831 5.332426 7.421531 0.352304 -0.150470 0.108115 0.000000 0.000000 0.000000 0.000000 0.000000 0.000000 0.000000 11.173780 -2.280567 -0.217865 54.165258 20.860938 20.109050 179.960780 89.629638 -179.992335 0.748198 3.882541 0.028630 0.008003 -0.404356 -0.000000 0.000000 0.000000 0.000000 0.000000 0.000000 0.000000 
5.360309 16.399139 -3.850987 -174.086856 43.530767 -161.680060 -3.824683 0.236924 -0.871780 -1.698294 0.437304 -3.065510 -6.698563 0.491252 0.369900 10.574468 -8.919398 -6.856405 -2.672742 -0.206876 0.158813 0.000000 0.000000 0.000000 -3.679286 15.602661 0.776318 -63.015376 2.235640 18.508175 -0.528116 -80.317766 -0.028294 5.800887 7.397775 0.381673 -0.161558 0.111710 0.000000 0.000000 0.000000 0.000000 0.000000 0.000000 0.000000 11.052255 -2.386860 -0.259280 54.527134 20.168629 19.923449 179.980379 89.990919 -179.991300 0.991405 3.684179 0.036180 0.001832 -0.395421 -0.000000 0.000000 0.000000 0.000000 0.000000 0.000000 0.000000 
5.430083 16.387877 -3.956459 -174.431105 42.829616 -161.956143 -3.829025 0.231521 -0.760729 -1.694446 0.435097 -3.040338 -6.714978 0.488850 0.374497 10.516335 -8.914392 -6.720780 -2.661209 -0.207283 0.193245 0.000000 0.000000 0.000000 -4.252112 15.358864 0.796573 -62.819715 0.594862 19.270787 -0.597201 -79.212044 -0.030600 6.240219 7.330811 0.406439 -0.171752 0.116105 0.000000 0.000000 0.000000 0.000000 0.000000 0.000000 0.000000 10.934464 -2.502231 -0.289819 54.815988 19.457142 19.734561 0.000909 89.592519 0.009780 1.251193 3.436130 0.042729 -0.004265 -0.384674 -0.000000 0.000000 0.000000 0.000000 0.000000 0.000000 0.000000 
5.493800 16.383791 -4.064958 -174.676507 42.116496 -162.123526 -3.724553 0.239932 -0.682437 -1.668150 0.438862 -3.020735 -6.723757 0.492138 0.381343 10.430293 -8.910451 -6.575582 -2.655550 -0.208340 0.231154 0.000000 0.000000 0.000000 -4.807791 15.070755 0.807377 -62.736203 -1.000531 20.046897 -0.662510 -78.171923 -0.032707 6.638340 7.217786 0.425102 -0.180930 0.121457 0.000000 0.000000 0.000000 0.000000 0.000000 0.000000 0.000000 10.821381 -2.619373 -0.308618 55.021193 18.734700 19.552056 0.021616 89.132843 0.010931 1.532458 3.148791 0.048177 -0.010293 -0.372419 -0.000000 0.000000 0.000000 0.000000 0.000000 0.000000 0.000000 
5.552047 16.386134 -4.176432 -174.816727 41.394499 -162.178502 -3.517346 0.258119 -0.642284 -1.620349 0.444833 -3.007494 -6.723561 0.497315 0.390227 10.327092 -8.908283 -6.423317 -2.654500 -0.209917 0.271875 0.000000 0.000000 0.000000 -5.321137 14.743006 0.807608 -62.777925 -2.513614 20.823647 -0.720919 -77.238282 -0.034578 6.982887 7.059589 0.436762 -0.188950 0.127863 0.000000 0.000000 0.000000 0.000000 0.000000 0.000000 0.000000 10.716148 -2.737900 -0.314076 55.139273 18.015136 19.390488 0.042170 88.639663 0.012157 1.839539 2.833609 0.052427 -0.016209 -0.359007 -0.000000 0.000000 0.000000 0.000000 0.000000 0.000000 0.000000 
